HIERARCHY
ROOT Hips
{
	OFFSET 0.00000 0.00000 0.00000
	CHANNELS 6 Xposition Yposition Zposition Zrotation Yrotation Xrotation 
	JOINT LHipJoint
	{
		OFFSET 0 0 0
		CHANNELS 3 Zrotation Yrotation Xrotation
		JOINT LeftHip
		{
			OFFSET 1.26600 -1.82114 0.91038
			CHANNELS 3 Zrotation Yrotation Xrotation
			JOINT LeftKnee
			{
				OFFSET 2.50076 -6.87080 0.00000
				CHANNELS 3 Zrotation Yrotation Xrotation
				JOINT LeftAnkle
				{
					OFFSET 2.57364 -7.07102 0.00000
					CHANNELS 3 Zrotation Yrotation Xrotation
					JOINT LeftToe
					{
						OFFSET 0.13572 -0.37290 1.97004
						CHANNELS 3 Zrotation Yrotation Xrotation
						End Site
						{
							OFFSET 0.00000 -0.00000 1.01383
						}
					}
				}
			}
		}
	}
	JOINT RHipJoint
	{
		OFFSET 0 0 0
		CHANNELS 3 Zrotation Yrotation Xrotation
		JOINT RightHip
		{
			OFFSET -1.20803 -1.82114 0.91038
			CHANNELS 3 Zrotation Yrotation Xrotation
			JOINT RightKnee
			{
				OFFSET -2.54916 -7.00377 0.00000
				CHANNELS 3 Zrotation Yrotation Xrotation
				JOINT RightAnkle
				{
					OFFSET -2.56374 -7.04382 0.00000
					CHANNELS 3 Zrotation Yrotation Xrotation
					JOINT RightToe
					{
						OFFSET -0.23520 -0.64621 2.09921
						CHANNELS 3 Zrotation Yrotation Xrotation
						End Site
						{
							OFFSET -0.00000 -0.00000 1.10065
						}
					}
				}
			}
		}
	}
	JOINT lowerback
	{
		OFFSET 0 0 0
		CHANNELS 3 Zrotation Yrotation Xrotation
		JOINT Chest
		{
			OFFSET 0.05492 2.10797 -0.12074
			CHANNELS 3 Zrotation Yrotation Xrotation
			JOINT Chest2
			{
				OFFSET 0.04577 2.11592 -0.04483
				CHANNELS 3 Zrotation Yrotation Xrotation
				JOINT lowerneck
				{
					OFFSET 0 0 0
					CHANNELS 3 Zrotation Yrotation Xrotation
					JOINT Neck
					{
						OFFSET -0.10759 1.80167 0.15770
						CHANNELS 3 Zrotation Yrotation Xrotation
						JOINT Head
						{
							OFFSET 0.09237 1.77509 -0.40848
							CHANNELS 3 Zrotation Yrotation Xrotation
							End Site
							{
								OFFSET 0.03805 1.84093 -0.15754
							}
						}
					}
				}
				JOINT LeftCollar
				{
					OFFSET 0 0 0
					CHANNELS 3 Zrotation Yrotation Xrotation
					JOINT LeftShoulder
					{
						OFFSET 3.42372 1.09575 -0.28209
CHANNELS 3 Zrotation Xrotation Yrotation
						JOINT LeftElbow
						{
OFFSET 0 -4.956810 0.000000
CHANNELS 3 Zrotation Xrotation Yrotation
							JOINT LeftWrist
							{
OFFSET 0 -3.409150 0.000000
CHANNELS 3 Zrotation Xrotation Yrotation
								JOINT lhand
								{
									OFFSET 0 0 0
CHANNELS 3 Zrotation Xrotation Yrotation
									JOINT LFingers
									{
OFFSET 0 -0.616400 0.000000
CHANNELS 3 Zrotation Xrotation Yrotation
										End Site
										{
OFFSET 0 -0.496960 0.000000
										}
									}
								}
								JOINT LThumb
								{
OFFSET 0 0.000000 0.000000
CHANNELS 3 Zrotation Xrotation Yrotation
									End Site
									{
OFFSET 0 -0.504550 0.504550
									}
								}
							}
						}
					}
				}
				JOINT RightCollar
				{
					OFFSET 0 0 0
					CHANNELS 3 Zrotation Yrotation Xrotation
					JOINT RightShoulder
					{
						OFFSET -3.24731 1.15872 -0.32221
CHANNELS 3 Zrotation Xrotation Yrotation
						JOINT RightElbow
						{
OFFSET 0 -5.352000 0.000000
CHANNELS 3 Zrotation Xrotation Yrotation
							JOINT RightWrist
							{
OFFSET 0 -3.437210 -0.000000
CHANNELS 3 Zrotation Xrotation Yrotation
								JOINT rhand
								{
									OFFSET 0 0 0
CHANNELS 3 Zrotation Xrotation Yrotation
									JOINT RFingers
									{
OFFSET 0 -0.720090 0.000000
CHANNELS 3 Zrotation Xrotation Yrotation
										End Site
										{
OFFSET 0 -0.580560 0.000000
										}
									}
								}
								JOINT RThumb
								{
OFFSET 0 0.000000 0.000000
CHANNELS 3 Zrotation Xrotation Yrotation
									End Site
									{
OFFSET 0 -0.589420 0.589420
									}
								}
							}
						}
					}
				}
			}
		}
	}
}
MOTION
Frames: 8
Frame Time: 0.008333333333333333
20.136954 20.877676 -0.498732 3.777101 180.541441 -357.394042 0.000000 0.000000 0.000000 -13.152377 -9.998141 -16.705526 4.411569 12.688445 38.213701 0.426200 -15.606705 -15.043784 0.413556 -4.128014 -11.436969 0.000000 0.000000 0.000000 25.808189 -1.186914 -7.311890 -2.071066 -9.012476 25.834403 -1.106975 7.311303 -18.793782 -0.760347 -5.562621 15.522081 3.961339 -0.786676 5.138454 3.098019 -1.065380 1.960448 1.027470 -0.633907 -0.867836 -7.908244 -3.713050 -12.917272 0.001157 2.188250 39.997107 2.285168 1.337664 16.665116 0.000000 0.000000 0.000000 -3.817124 2.044599 -18.802337 14.253422 -23.095889 2.926854 20.782316 7.826334 -18.332322 0.000000 0.000000 0.000000 -7.125000 0.000000 0.000000 -7.218390 49.358152 0.779681 0.000000 0.000000 0.000000 -7.689326 0.464410 14.503959 -20.968133 -31.791030 -6.033172 -23.766466 -20.294560 -9.091785 0.000000 0.000000 0.000000 7.125000 0.000000 0.000000 2.264670 20.065469 1.351500
20.192083 20.919796 -0.713972 3.703305 182.258472 -357.432145 0.000000 0.000000 0.000000 -13.127002 -8.287723 -22.028741 5.083521 13.477273 41.182383 0.532200 -13.883721 -15.192455 0.270685 -3.346746 -9.245595 0.000000 0.000000 0.000000 26.155150 -2.536973 -5.483932 -1.703252 -8.218256 23.379202 -1.099796 6.513538 -18.723414 -0.969459 -6.268382 17.565229 4.751065 -0.153857 5.704052 2.837323 -0.148384 2.040887 0.267519 -0.175218 -1.089189 -9.859080 1.577658 -12.054042 3.427955 -1.516624 39.533162 2.530378 -3.340168 16.190962 0.000000 0.000000 0.000000 -3.226483 2.028795 -22.376986 15.392726 -24.690217 3.388362 21.596831 5.435109 -17.731322 0.000000 0.000000 0.000000 -7.125000 0.000000 0.000000 -6.275079 48.854111 0.602886 0.000000 0.000000 0.000000 -7.255963 0.474933 14.274294 -19.048891 -29.478997 -5.055024 -23.034088 -17.979156 -8.881185 0.000000 0.000000 0.000000 7.125000 0.000000 0.000000 2.783527 20.348458 1.643801
20.246909 20.917758 -1.013995 4.400726 183.349950 -357.412990 0.000000 0.000000 0.000000 -12.205208 -7.645987 -26.489873 4.547664 12.855389 38.829757 0.316968 -14.282034 -13.377812 0.223644 -3.043886 -8.401000 0.000000 0.000000 0.000000 27.588202 -2.891754 -3.304066 -1.378805 -7.430362 20.996917 -1.067410 3.658907 -18.648591 -0.547991 -4.741767 13.173628 5.467329 0.265624 6.273662 3.197898 0.435646 2.219657 0.201763 0.093236 -1.196873 -10.425748 1.372547 -12.034966 3.516414 -1.705332 39.798132 2.647458 -3.485525 16.357317 0.000000 0.000000 0.000000 -3.055234 1.636969 -21.726429 15.947525 -25.449470 3.623424 21.875236 7.753894 -20.501717 0.000000 0.000000 0.000000 -7.125000 0.000000 0.000000 -6.783712 51.801384 1.140389 0.000000 0.000000 0.000000 -7.350140 -0.276488 16.963266 -17.644181 -27.698939 -4.382613 -21.833972 -16.415411 -9.778338 0.000000 0.000000 0.000000 7.125000 0.000000 0.000000 3.666125 19.473475 2.239051
20.290368 20.882246 -1.425799 4.138154 184.277803 -357.513846 0.000000 0.000000 0.000000 -12.338609 -8.265420 -28.783830 3.371602 11.272767 33.206338 0.196629 -13.294273 -11.621156 0.092414 -1.959955 -5.395068 0.000000 0.000000 0.000000 27.974580 -2.671689 -0.624745 -1.164924 -6.851611 19.276508 -1.139960 0.990763 -19.881130 -0.247449 -3.200784 8.838121 5.033849 0.528963 6.585403 3.168159 0.744858 2.601200 0.389806 0.247302 -0.971186 -10.354423 1.202166 -12.134329 3.538281 -1.817041 39.636200 2.640284 -3.452994 16.309762 0.000000 0.000000 0.000000 -2.317024 2.477137 -21.812377 16.722784 -26.490836 3.962888 21.227596 6.304651 -21.285290 0.000000 0.000000 0.000000 -7.125000 0.000000 0.000000 -7.687440 52.500848 1.425949 0.000000 0.000000 0.000000 -6.263233 -1.394829 17.503945 -17.030240 -26.897536 -4.101072 -20.729935 -13.112977 -9.629937 0.000000 0.000000 0.000000 7.125000 0.000000 0.000000 4.450907 19.712544 2.696319
20.299819 20.795301 -1.959491 5.574372 184.299945 -357.822855 0.000000 0.000000 0.000000 -10.586042 -8.463096 -30.337545 2.493657 9.826138 28.415674 0.078462 -12.834369 -9.991890 0.274097 -3.338371 -9.224962 0.000000 0.000000 0.000000 29.532536 -4.406608 2.875682 -0.801026 -5.711092 15.948781 -1.124476 1.234659 -19.674978 -0.178105 -2.718306 7.495531 5.965197 0.942218 6.430187 3.652572 1.239088 2.970218 0.342767 0.476338 -0.470003 -10.046662 1.301140 -11.807809 3.557166 -1.806907 39.679723 2.599665 -3.397123 16.244315 0.000000 0.000000 0.000000 -1.275564 1.925481 -21.122343 15.066829 -24.238853 3.253549 21.834365 6.564538 -19.746603 0.000000 0.000000 0.000000 -7.125000 0.000000 0.000000 -6.595088 51.005362 0.979524 0.000000 0.000000 0.000000 -5.090110 -2.134416 19.281206 -17.146383 -27.050332 -4.153698 -21.647293 -14.164534 -9.072995 0.000000 0.000000 0.000000 7.125000 0.000000 0.000000 3.784252 20.241420 2.246187
20.272389 20.705066 -2.625749 6.315398 183.286067 -357.922212 0.000000 0.000000 0.000000 -10.078311 -7.215369 -31.415655 2.019162 8.905673 25.500941 0.077840 -12.158999 -9.559598 0.191246 -2.816073 -7.767241 0.000000 0.000000 0.000000 29.906860 -5.886607 7.558552 -0.436214 -4.238287 11.748149 -1.087857 1.413572 -19.294960 -0.119205 -2.219903 6.113889 5.966560 1.381478 6.022161 3.852290 1.773959 2.986616 0.523305 0.741147 -0.211712 -10.001141 1.521156 -11.783332 3.774301 -1.889815 40.511760 2.663196 -3.508162 16.689406 0.000000 0.000000 0.000000 -0.607024 2.416927 -18.401604 13.218700 -21.606745 2.533259 18.713226 8.480246 -21.310370 0.000000 0.000000 0.000000 -7.125000 0.000000 0.000000 -10.205189 52.080736 1.794393 0.000000 0.000000 0.000000 -3.819869 -2.182522 21.338842 -17.355362 -27.323817 -4.249137 -21.482479 -13.976713 -8.691774 0.000000 0.000000 0.000000 7.125000 0.000000 0.000000 3.896151 20.659920 2.275887
20.157639 20.590085 -3.369693 6.641675 181.456531 -357.648401 0.000000 0.000000 0.000000 -9.864039 -7.001555 -30.519259 1.707254 8.227542 23.407430 0.085836 -11.581899 -9.305958 0.278910 -3.395556 -9.382048 0.000000 0.000000 0.000000 29.144041 -6.061805 10.582841 -0.403806 -4.079776 11.301249 -1.064763 3.016837 -18.729872 -0.008248 -0.567630 1.559799 5.943197 1.729188 5.265859 3.791329 2.186933 2.941047 0.470669 0.961799 0.177278 -9.778589 1.727864 -11.939635 3.626227 -1.580387 40.590936 2.604330 -3.383947 16.735079 0.000000 0.000000 0.000000 -0.900706 3.250534 -14.221745 11.868994 -19.607769 2.058203 19.596370 9.743504 -19.728088 0.000000 0.000000 0.000000 -7.125000 0.000000 0.000000 -8.789346 50.612734 1.224610 0.000000 0.000000 0.000000 -2.814135 -2.328266 23.869860 -17.586129 -27.624042 -4.355647 -21.344110 -13.997521 -7.916475 0.000000 0.000000 0.000000 7.125000 0.000000 0.000000 3.986080 21.496738 2.253352
19.974058 20.536483 -4.204139 7.089056 179.350499 -357.658404 0.000000 0.000000 0.000000 -9.554134 -7.429115 -28.168105 1.830646 8.504041 24.255933 -0.132482 -8.824002 -3.187302 0.404530 -4.081136 -11.305253 0.000000 0.000000 0.000000 28.364429 -5.335105 13.475070 -0.494516 -4.506091 12.505425 -0.842158 3.858756 -16.468975 -0.073998 -1.292844 3.563221 6.411640 1.650819 4.983356 3.520249 2.864564 2.657198 -0.095690 1.628522 0.068948 -9.313909 2.167096 -11.633012 3.804151 -1.297141 40.823050 2.636584 -3.238794 16.743440 0.000000 0.000000 0.000000 -1.014846 5.148443 -12.185139 11.556132 -19.135414 1.954524 18.619602 11.050996 -21.086580 0.000000 0.000000 0.000000 -7.125000 0.000000 0.000000 -10.215173 51.837122 1.734742 0.000000 0.000000 0.000000 -2.041983 -1.749336 24.340496 -17.579930 -27.615689 -4.352916 -18.611321 -11.469882 -7.329489 0.000000 0.000000 0.000000 7.125000 0.000000 0.000000 5.976971 22.264496 3.284123
